<?xml version="1.0" encoding="UTF-8"?>
<svg version="1.1" xmlns="http://www.w3.org/2000/svg" width="90" height="90">
<path d="M0 0 C4.62675657 1.3922459 8.64686231 3.29520984 12.875 5.625 C14.02742188 6.25664062 15.17984375 6.88828125 16.3671875 7.5390625 C17.67042969 8.26222656 17.67042969 8.26222656 19 9 C18.67 10.65 18.34 12.3 18 14 C17.01 14.33 16.02 14.66 15 15 C13.88319294 17.84979639 13.88319294 17.84979639 13 21 C12.608125 21.680625 12.21625 22.36125 11.8125 23.0625 C10.64634407 25.84333337 11.10041688 27.10848282 12 30 C12.31839844 30.60328125 12.63679688 31.2065625 12.96484375 31.828125 C16.5760544 38.76781806 17.097528 45.27509136 16 53 C13.44527767 61.00914775 9.53061109 67.06918652 2 71 C-5.38253031 74.42854166 -12.5516211 75.09980088 -20.4375 73.0625 C-27.91176372 70.25637292 -34.3083036 64.45376066 -37.625 57.1875 C-39.99344325 49.92427402 -40.26402801 42.32509861 -37.375 35.1875 C-33.1114225 27.00083904 -27.78465268 22.10860919 -19 19 C-17.06771044 18.71248775 -15.12952529 18.46200007 -13.1875 18.25 C-9.9091584 17.77239153 -8.48338021 17.53033105 -6.23046875 15.05859375 C-4.41082553 11.87552909 -3.18991565 9.00534715 -2.5078125 5.39453125 C-2 3 -2 3 0 0 Z M1 3 C0.75765625 3.65226563 0.5153125 4.30453125 0.265625 4.9765625 C-3.83415777 15.6675345 -3.83415777 15.6675345 -7 19 C-9.4614533 19.78398601 -11.85238377 20.20285756 -14.40625 20.5859375 C-20.8211499 21.61000285 -26.6578281 24.00772891 -31 29 C-35.93305426 36.4529117 -38.28237043 43.25873157 -36.57421875 52.23828125 C-34.46727596 59.72245227 -30.0036975 65.60166416 -23.1875 69.4375 C-16.01508614 72.53310829 -8.82309629 72.76284139 -1.45703125 70.19921875 C5.39035953 66.85716951 10.7201825 61.58907866 13.4140625 54.421875 C15.27455536 46.73183784 14.2899361 40.08601622 11 33 C10.34 32.01 9.68 31.02 9 30 C8.48513754 25.21441945 9.47646228 22.42673814 11.875 18.3125 C12.40867188 17.38050781 12.94234375 16.44851562 13.4921875 15.48828125 C14.61738164 13.63141941 15.7956492 11.8065262 17 10 C14.71070947 8.82845707 12.41881638 7.66261926 10.125 6.5 C9.14853516 5.99919922 9.14853516 5.99919922 8.15234375 5.48828125 C4.7475529 3.63156283 4.7475529 3.63156283 1 3 Z " fill="#941C9E" transform="translate(49,6)"/>
<path d="M0 0 C4.91354358 1.50145381 9.39323293 3.5135905 13.98828125 5.7734375 C15.1039875 6.32096176 15.1039875 6.32096176 16.24223328 6.87954712 C17.80398244 7.64884114 19.36457912 8.42047881 20.92407227 9.19433594 C23.31631104 10.3768839 25.71745083 11.53991761 28.11914062 12.703125 C29.63860964 13.45453969 31.15751078 14.20710403 32.67578125 14.9609375 C33.39550613 15.3058725 34.11523102 15.6508075 34.85676575 16.00619507 C39.7890936 18.49446232 39.7890936 18.49446232 40.80949402 20.94033813 C41 23 41 23 39.1875 25.9375 C34.1939175 31.34377527 27.76199539 34.26458925 20.4375 34.5625 C12.79304746 34.1420012 7.28479386 31.74569566 2.0625 26.125 C-2.87734338 19.90445648 -3.87160666 13.80656396 -3 6 C-1.5 2.375 -1.5 2.375 0 0 Z M1 3 C-1.77575295 7.89838756 -1.33455419 12.70888515 0 18 C2.97400365 24.40708168 6.61268658 28.10763166 13 31 C18.54983816 32.84994605 23.91171987 32.82463183 29.25 30.3125 C32.72047799 28.36209137 35.42283993 26.06037758 38 23 C38 22.34 38 21.68 38 21 C22.87664489 13.06143163 22.87664489 13.06143163 7.6875 5.25 C6.80449219 4.80140625 5.92148437 4.3528125 5.01171875 3.890625 C3.06187642 2.86505996 3.06187642 2.86505996 1 3 Z " fill="#941C9E" transform="translate(17,42)"/>
<path d="M0 0 C2.6875 0.875 2.6875 0.875 5 2 C5 3.65 5 5.3 5 7 C2.6875 8.125 2.6875 8.125 0 9 C-0.99 8.34 -1.98 7.68 -3 7 C-3.375 4.5 -3.375 4.5 -3 2 C-2.01 1.34 -1.02 0.68 0 0 Z M0 3 C0 3.99 0 4.98 0 6 C0.99 6 1.98 6 3 6 C3 5.01 3 4.02 3 3 C2.01 3 1.02 3 0 3 Z " fill="#931D9E" transform="translate(32,60)"/>
<path d="M0 0 C4.55555556 0.55555556 4.55555556 0.55555556 6 2 C6.125 4.5 6.125 4.5 6 7 C5 8 5 8 2 8.125 C-1 8 -1 8 -2 7 C-2.1875 4.5625 -2.1875 4.5625 -2 2 C-1.34 1.34 -0.68 0.68 0 0 Z M1 2 C1 3.32 1 4.64 1 6 C1.99 5.67 2.98 5.34 4 5 C3.67 4.01 3.34 3.02 3 2 C2.34 2 1.68 2 1 2 Z " fill="#931C9F" transform="translate(34,31)"/>
<path d="M0 0 C1.32 0 2.64 0 4 0 C4.33 0.99 4.66 1.98 5 3 C4.67 3.66 4.34 4.32 4 5 C2.35 4.67 0.7 4.34 -1 4 C-0.67 2.68 -0.34 1.36 0 0 Z " fill="#941B9E" transform="translate(39,63)"/>
</svg>
