<?xml version="1.0" encoding="UTF-8"?>
<svg version="1.1" xmlns="http://www.w3.org/2000/svg" width="104" height="93">
<path d="M0 0 C4.37648322 3.19314226 7.140035 6.73095174 9.2578125 11.703125 C10.3014843 18.42900991 9.66136517 24.56654599 5.8203125 30.328125 C1.28801661 35.0062621 -2.89108465 38.27592495 -9.625 38.3828125 C-12.08357964 38.26275447 -14.54192175 38.13773207 -17 38.0078125 C-20.17298998 38.01070084 -20.17298998 38.01070084 -21.921875 39.8984375 C-23.26789626 42.39054297 -23.26789626 42.39054297 -24.3671875 45.40234375 C-26.635182 50.93501001 -30.5430798 55.45250707 -34.1796875 60.140625 C-35.26636719 61.57051758 -35.26636719 61.57051758 -36.375 63.02929688 C-41.77510972 70.05840648 -41.77510972 70.05840648 -45.1796875 72.328125 C-47.9314015 72.12174645 -49.68169416 71.6543965 -51.9921875 70.140625 C-53.87265076 67.27044423 -53.66411877 65.75374614 -53.1796875 62.328125 C-51.24755654 58.93344911 -48.88830601 55.90645507 -46.4921875 52.828125 C-45.86634766 51.99925781 -45.24050781 51.17039063 -44.59570312 50.31640625 C-36.20472821 39.2631639 -36.20472821 39.2631639 -31.3671875 34.640625 C-28.83608757 32.49542544 -28.83608757 32.49542544 -29.1796875 29.328125 C-29.67210012 27.94269288 -30.19653976 26.56846778 -30.7421875 25.203125 C-32.8425298 19.08127422 -32.1807588 14.16449368 -30.0546875 8.140625 C-23.15519603 -2.2086122 -11.23459358 -6.4587542 0 0 Z M-26.1171875 6.390625 C-29.86530828 11.72885762 -29.81737177 16.9955659 -29.1796875 23.328125 C-27.21907601 29.15668198 -23.16181118 32.71616625 -17.8671875 35.578125 C-11.52378829 37.34837594 -6.68358609 36.74502068 -1.0078125 33.60546875 C2.81073627 30.93738018 5.33449412 27.78558013 6.8203125 23.328125 C7.51797455 16.145637 7.21567454 11.14900986 2.8203125 5.328125 C-1.48759385 1.24113693 -5.0967985 -0.46700067 -10.9921875 -1.046875 C-17.14196812 -0.86122125 -22.11012309 1.77328929 -26.1171875 6.390625 Z M-26.1796875 32.328125 C-27.4996875 34.638125 -28.8196875 36.948125 -30.1796875 39.328125 C-28.8596875 40.318125 -27.5396875 41.308125 -26.1796875 42.328125 C-24.5296875 40.018125 -22.8796875 37.708125 -21.1796875 35.328125 C-22.8296875 34.338125 -24.4796875 33.348125 -26.1796875 32.328125 Z M-34.1796875 40.328125 C-35.74210144 42.06967664 -35.74210144 42.06967664 -37.33203125 44.34375 C-37.94369141 45.18292969 -38.55535156 46.02210937 -39.18554688 46.88671875 C-40.14170898 48.21896484 -40.14170898 48.21896484 -41.1171875 49.578125 C-41.75076172 50.45082031 -42.38433594 51.32351562 -43.03710938 52.22265625 C-44.22299339 53.85620837 -45.40613879 55.49175448 -46.58569336 57.12988281 C-47.65035397 58.5981328 -48.75636091 60.03724759 -49.90063477 61.44433594 C-51.46753322 63.32242966 -51.46753322 63.32242966 -50.9296875 66.015625 C-50.39347792 68.26582469 -50.39347792 68.26582469 -49.1796875 69.328125 C-46.80500329 69.78375182 -46.80500329 69.78375182 -44.1796875 69.328125 C-42.03754343 67.46590719 -42.03754343 67.46590719 -40.2265625 64.875 C-39.5253125 63.94558594 -38.8240625 63.01617187 -38.1015625 62.05859375 C-37.38484375 61.07503906 -36.668125 60.09148437 -35.9296875 59.078125 C-34.83140625 57.62599609 -34.83140625 57.62599609 -33.7109375 56.14453125 C-29.43025822 50.72313091 -29.43025822 50.72313091 -27.1796875 44.328125 C-30.27296645 41.35137041 -30.27296645 41.35137041 -34.1796875 40.328125 Z " fill="#9217A0" transform="translate(77.1796875,19.671875)"/>
<path d="M0 0 C3.89491301 2.63968038 5.9318134 5.98293643 7.125 10.5 C7.62446175 16.00269062 6.8422751 20.1798427 3.3125 24.5 C0.50664873 27.50060188 -2.12964679 29.25230961 -6.2421875 29.8359375 C-11.99961678 29.92561708 -15.38132672 29.45871218 -19.875 25.5 C-23.19164822 21.82479522 -24.69930791 19.29205934 -25.1875 14.3125 C-24.75589286 9.04689288 -23.31115613 4.80691707 -19.40234375 1.10546875 C-13.64458728 -2.74664728 -6.21202403 -2.9860373 0 0 Z M-20.6875 6.3125 C-22.39625109 9.46019937 -22.75365751 11.92039641 -22.875 15.5 C-21.28480479 20.71230653 -19.40324572 23.48116952 -14.875 26.5 C-11.66048618 28.10725691 -8.36166924 27.97397924 -4.875 27.5 C-1.02252417 25.46472975 2.02724752 23.36428089 4.125 19.5 C5.61066947 13.87567987 4.98212535 10.54758812 2.125 5.5 C-2.13360333 1.55300179 -4.90258263 0.14020976 -10.77734375 0.21484375 C-15.01849853 0.79138807 -17.76106493 3.38606493 -20.6875 6.3125 Z " fill="#9117A0" transform="translate(74.875,23.5)"/>
<path d="M0 0 C1.98 0.495 1.98 0.495 4 1 C3.67 2.32 3.34 3.64 3 5 C1.68 4.67 0.36 4.34 -1 4 C-0.67 2.68 -0.34 1.36 0 0 Z " fill="#9214A1" transform="translate(61,26)"/>
</svg>
