<?xml version="1.0" encoding="UTF-8"?>
<svg version="1.1" xmlns="http://www.w3.org/2000/svg" width="74" height="70">
<path d="M0 0 C8.56720713 -0.13363169 17.05415568 0.28359659 25.6015625 0.83984375 C26.97348961 0.92730117 28.34542791 1.01458331 29.71737671 1.10169983 C32.56646173 1.28346409 35.41536217 1.46784584 38.26416016 1.65405273 C41.9212315 1.89279848 45.57873613 2.12402072 49.23641396 2.3532629 C52.05721305 2.53100661 54.87772173 2.71305406 57.69816208 2.89639473 C59.70392827 3.02588253 61.7099505 3.15138421 63.7159729 3.27684021 C64.92167938 3.35684769 66.12738586 3.43685516 67.36962891 3.51928711 C68.43565338 3.58812607 69.50167786 3.65696503 70.6000061 3.72789001 C73 4 73 4 74 5 C74.04167249 6.5529186 74.0098785 8.10786337 73.94921875 9.66015625 C73.89217773 11.16968872 73.89217773 11.16968872 73.83398438 12.7097168 C73.78564453 13.81613525 73.73730469 14.92255371 73.6875 16.0625 C73.64044922 17.20178955 73.59339844 18.3410791 73.54492188 19.51489258 C73.12853592 29.07827557 72.58687062 38.63325737 72 48.1875 C71.95829681 48.87699738 71.91659363 49.56649475 71.87362671 50.27688599 C71.7524952 52.26162468 71.62632715 54.24605398 71.5 56.23046875 C71.4278125 57.36895264 71.355625 58.50743652 71.28125 59.68041992 C70.98757356 63.14666871 70.52381703 66.56163228 70 70 C67.22273813 68.73000396 65.17180676 67.42240446 63.0133667 65.26733398 C62.45253387 64.71214081 61.89170105 64.15694763 61.31387329 63.58493042 C60.71110565 62.97811432 60.10833801 62.37129822 59.48730469 61.74609375 C58.84298492 61.10527863 58.19866516 60.4644635 57.53482056 59.80422974 C55.40878279 57.68698731 53.29013527 55.56252158 51.171875 53.4375 C49.69814839 51.96512033 48.22412496 50.49303769 46.74981689 49.02124023 C43.66327962 45.93765097 40.580388 42.85047399 37.5 39.76074219 C33.54312313 35.79245105 29.57730979 31.83323156 25.60874557 27.87663269 C22.56493025 24.84002756 19.52587383 21.79869583 16.48825836 18.75588989 C15.02722419 17.29351793 13.56469293 15.83264017 12.10066986 14.3732605 C10.06061875 12.33826292 8.0270463 10.29700916 5.99511719 8.25390625 C5.38425262 7.64709015 4.77338806 7.04027405 4.14401245 6.41506958 C0 2.22853029 0 2.22853029 0 0 Z M4 2 C7.79502599 6.53057482 11.71102607 10.85704277 15.89770508 15.02709961 C16.45292847 15.58407532 17.00815186 16.14105103 17.5802002 16.71490479 C19.39082701 18.52988448 21.20502858 20.34123953 23.01953125 22.15234375 C24.28666035 23.4201472 25.55364103 24.688099 26.82048035 25.95619202 C29.46227699 28.59945622 32.10585737 31.2409197 34.75073242 33.88110352 C38.1483265 37.27296568 41.54136435 40.66934484 44.93311024 44.06705379 C47.54171294 46.67925773 50.15267732 49.28909054 52.7643795 51.89819527 C54.01749859 53.15064568 55.26987088 54.40384374 56.52149391 55.65778923 C58.26168515 57.40050356 60.00502063 59.14000838 61.74926758 60.87866211 C62.26923813 61.40065689 62.78920868 61.92265167 63.32493591 62.46046448 C65.32081276 64.91683571 65.32081276 64.91683571 68 66 C68 64.02 68 62.04 68 60 C66.35 59.67 64.7 59.34 63 59 C63 58.34 63 57.68 63 57 C64.98 57 66.96 57 69 57 C69 56.34 69 55.68 69 55 C67.35 54.34 65.7 53.68 64 53 C65.65 53 67.3 53 69 53 C69 52.01 69 51.02 69 50 C67.35 50 65.7 50 64 50 C64 49.01 64 48.02 64 47 C65.65 47.33 67.3 47.66 69 48 C69 47.01 69 46.02 69 45 C68.0409375 44.814375 68.0409375 44.814375 67.0625 44.625 C66.381875 44.41875 65.70125 44.2125 65 44 C64.67 43.34 64.34 42.68 64 42 C66.97 42.495 66.97 42.495 70 43 C70 42.01 70 41.02 70 40 C68.35 39.67 66.7 39.34 65 39 C67 38 67 38 70 38 C70 37.01 70 36.02 70 35 C68.35 35 66.7 35 65 35 C65.495 34.01 65.495 34.01 66 33 C67.32 33 68.64 33 70 33 C70 32.01 70 31.02 70 30 C68.35 30 66.7 30 65 30 C65 29.34 65 28.68 65 28 C66.98 28 68.96 28 71 28 C71 27.01 71 26.02 71 25 C69.02 25 67.04 25 65 25 C65 24.34 65 23.68 65 23 C66.98 23 68.96 23 71 23 C71 22.01 71 21.02 71 20 C69.35 19.67 67.7 19.34 66 19 C67.65 18.67 69.3 18.34 71 18 C71 17.01 71 16.02 71 15 C69.35 15 67.7 15 66 15 C66 14.34 66 13.68 66 13 C67.65 13 69.3 13 71 13 C71.33 12.01 71.66 11.02 72 10 C70.02 10 68.04 10 66 10 C66 9.34 66 8.68 66 8 C67.98 8 69.96 8 72 8 C69.26565984 5.26565984 67.54800072 5.62441069 63.71435547 5.40576172 C63.07032776 5.36645538 62.42630005 5.32714905 61.76275635 5.28665161 C59.63131824 5.15878371 57.49938145 5.04419937 55.3671875 4.9296875 C53.89026194 4.84368046 52.41338427 4.75684737 50.93655396 4.66921997 C47.0473354 4.44068703 43.15756614 4.22340426 39.26757812 4.00842285 C35.29908728 3.78711874 31.33121678 3.55522972 27.36328125 3.32421875 C19.57609061 2.87242431 11.78828817 2.43250783 4 2 Z " fill="#9517A0" transform="translate(0,0)"/>
<path d="M0 0 C7.22612316 -0.11136149 14.41248361 0.00280236 21.625 0.4375 C22.65463867 0.49635376 22.65463867 0.49635376 23.70507812 0.55639648 C26.67692832 0.74935934 29.15908452 1.05302817 32 2 C31.86024595 5.54193375 31.71211066 9.08346999 31.5625 12.625 C31.52318359 13.62402344 31.48386719 14.62304688 31.44335938 15.65234375 C31.23427386 20.50956104 30.97041445 25.22132044 30 30 C25.82791008 28.36033597 23.01878371 25.30728471 19.921875 22.1875 C19.35043762 21.61797607 18.77900024 21.04845215 18.19024658 20.46166992 C16.98765211 19.2604332 15.78756666 18.05668003 14.58984375 16.85058594 C12.74959283 14.99959045 10.89887367 13.15954554 9.046875 11.3203125 C7.87956616 10.15168276 6.71287749 8.98243316 5.546875 7.8125 C4.99070496 7.26037842 4.43453491 6.70825684 3.86151123 6.1394043 C0 2.22993635 0 2.22993635 0 0 Z M5 2 C9.52991796 7.43733055 14.34294216 12.46458931 19.375 17.4375 C20.11105469 18.16904297 20.84710938 18.90058594 21.60546875 19.65429688 C23.40136074 21.43852723 25.19955985 23.22036124 27 25 C28.56089092 22.20682677 29.26898988 20.0822226 29.4140625 16.890625 C29.45273437 16.13652344 29.49140625 15.38242187 29.53125 14.60546875 C29.5621875 13.82816406 29.593125 13.05085938 29.625 12.25 C29.66367187 11.45722656 29.70234375 10.66445313 29.7421875 9.84765625 C29.836108 7.89880584 29.91912822 5.94943549 30 4 C26.68856994 3.27586627 23.52155779 2.83645745 20.13671875 2.68359375 C18.80737305 2.62075195 18.80737305 2.62075195 17.45117188 2.55664062 C16.53916016 2.51732422 15.62714844 2.47800781 14.6875 2.4375 C13.75615234 2.39431641 12.82480469 2.35113281 11.86523438 2.30664062 C9.57695546 2.20102775 7.28857628 2.09892248 5 2 Z " fill="#9217A0" transform="translate(29,13)"/>
</svg>
